<svg fill="none" height="346" viewBox="0 0 356 346" width="356" xmlns="http://www.w3.org/2000/svg" xmlns:xlink="http://www.w3.org/1999/xlink"><clipPath id="a"><rect height="345.18" rx="172.59" width="355.181"/></clipPath><g clip-path="url(#a)"><path d="m396-51h-447v447h447z" fill="#221f20"/><path d="m228.635 372.63c-2.8-4.94-22.67-60.15-21.13-66.59 2.79-11.67 11.84-17.34 20.23-23.69 1.68-1.27 5.36-.68 6.06 3.22.71 3.91 2.06 7.72 2.58 11.65.28 2.13.88 3.78 2.12 5.49 5.85 8.03 14.37 8.2 22.57 6.59 8.13-1.6 11.21-8.2 12.47-16.18 2.16-13.6 1.67-17.9 19.03-21.3 11.39-2.23 12.42-4.82 5.43-13.56-11.4-14.25-26.38-21.69-43.08-5.56-1.98 1.91-4.55 3.19-6.8 4.84-8.07 5.91-11.16 4.78-12.99-4.8-.13-.66.09-1.39-.03-2.05-2.28-11.92-4.36-13.44-16.32-16.71-3.18-.87-6.51-.89-9.76-2.2-7.35-2.96-12.6-9.68-12.21-18.04.47-10.23 5.6-16.09 14.34-17.93.927-.195 1.904-.3 2.9-.381 8.816-.716 10.054-10.239 4.57-17.179-10.62-13.43-23.99-14.72-38.24-4.19-3.56 2.63-7.14 5.29-10.97 7.48-4.86 2.77-9.6 3.94-15.78 2.47-8.11-1.92-12.89-7.81-19.03-12.05-5.4-3.72-8.93-2.46-11.8 3.42-4.3 8.84-2.17 18.35-3.75 27.46-1.26 7.32-2.97 13.82-8.42 19.14-11.2204 10.96-35.0804 15.01-49.2904 8.18-5-2.4-6.24-5.66-3.36-10.22 2.43-3.84 5.39-7.35 8.15-10.98 6.56-8.65 6.47-18.7.04-27.4-2.71-3.67-5.56-7.27-8.11-11.01-2.84-4.16-5.33-8.64-5.03-14.27.48-9 11.5-24.85 19.98-27.24 2.37-.67 5.63-1 6.8 2.62.73 2.26 1.88 4.54 1.97 6.84.39 9.94 5.26 15.19 15.11 17.26 11.0304 2.31 20.0104-3.47 22.0804-14.5 1.26-6.71 1.26-14.22 7.38-19.18 4.79-3.88 10.86-3.49 16.42-4.78 5.82-1.36 6.72-3.03 4.08-8.21-2.09-4.11-5.29-7.42-8.05-11.06-5.1-6.71-10.96-12.83-7.97-23.24 3.09-10.78 10.63-16.67 18.85-22.4 3.05-2.13 6.39-.96 7.29 2.69.6 2.42 1.48 4.83 1.69 7.47.45 5.87 2.86 11.13 8.11 14.31 3.68 2.23 8.14 2.08 12.28 2.77 11.83 1.95 17.44 8.14 17.78 19.87.12 4.05.15 8.57-3.54 10.75-3.25 1.92-5.67-2.47-8.78-3.25-.27-.07-.44-.46-.69-.66-4.29-3.55-10.76-2.97-15.74 2.04-4.25 4.29-6.18 12.03-2.6 15.6 9.32 9.29 7.89 17.91-.11 26.84-.585.636.361 1.662 1.078 2.144 7.748 5.214 18.419 4.237 24.942-2.124 4.77-4.66 5.18-10.45 5.44-16.46.38-9.03 3.33-10.99 10.17-6.04 6.74 4.88 12.4 3.88 18.65-.67 2.23-1.62 4.36-3.88 7.43-4.23 5.61-.64 9.87 1.29 13.06 6.12 3.03 4.58 4.16 8.74.8 13.83-1.17 1.77-2.61 3.44-3.59 5.36-1.21 2.4-1.08 4.5 1.35 6.16 7.18 4.89 24.9-1.23 27.33-9.6 1.17-4.03 2.13-8.16 2.73-12.31 1.2-8.41 4.79-11.89 13.01-13.86 3.2-.77 6.5-.83 9.63-1.86 5.18-1.7 6.28-4.2 3.38-8.88-3.46-5.6-8.45-9.66-13.53-13.84-9.48-7.79-19.96-5.61-27.47.15-4.38 3.36-8.82 6.67-12.95 10.31-2.34 2.06-4.93 2.43-7.56 1.9-3.3-.66-1.85-4.13-2.92-5.97-2.91-5-1-11.56-5.92-15.91-4.25-3.76-9.18-4.84-14.44-5.38-17.8-1.83-21.02-14.66-17.94-27.41 1.31-5.42 3.56-4.32 7.02-2.75 3.38 1.54 5.37 5.32 9.56 5.55 6.48.35 10.57-3.21 13.65-8.26 2.53-4.14 2.46-8.51-.69-12.26l-57.38-61.53" stroke="#fff" stroke-miterlimit="10" stroke-width="7"/></g></svg>